<svg xmlns="http://www.w3.org/2000/svg" width="134" height="33" viewBox="0 0 134 33" fill="none"><path d="M103.19 26.1796C102.627 26.7714 102.157 27.4429 101.803 28.1749C101.54 28.7202 101.34 29.3016 101.215 29.9107L117.645 29.9232C117.523 29.3217 117.325 28.7445 117.061 28.2005C116.703 27.4617 116.222 26.7811 115.645 26.1817C114.86 26.5036 114.038 26.7672 113.183 26.967C111.969 27.2515 110.707 27.4027 109.419 27.4027C108.13 27.4027 106.867 27.2515 105.651 26.9656C104.796 26.7651 103.974 26.5015 103.19 26.1796ZM98.8386 26.8969C99.5351 25.4574 100.553 24.1836 101.804 23.1596L102.651 22.4658L103.637 22.9605C104.521 23.4038 105.458 23.7479 106.431 23.9755C107.379 24.1975 108.38 24.3154 109.42 24.3154C110.459 24.3154 111.459 24.1975 112.405 23.9762C113.377 23.7486 114.312 23.4059 115.194 22.9639L116.177 22.4714L117.028 23.1631C118.293 24.1905 119.325 25.4719 120.027 26.9212C120.7 28.3122 121.069 29.8566 121.047 31.4786L121.026 32.9987L97.7884 32.9806V31.4446C97.7884 29.8316 98.165 28.2893 98.8401 26.8949L98.8386 26.8969Z" fill="#51C0FF"></path><path d="M25.639 2.75012V0H22.3671V2.75012H25.639ZM22.3671 21.0449H25.639V4.20912H22.3671V21.0449ZM39.3514 25.2533C41.9093 25.2533 43.8178 24.7954 45.0768 23.879C46.3359 22.9625 46.9655 21.466 46.9655 19.3889V4.20912H37.2988C34.9189 4.20912 33.0994 4.80785 31.8403 6.0053C30.5812 7.20275 29.9517 8.93233 29.9517 11.1961V12.6551C29.9517 14.9182 30.5812 16.6492 31.8403 17.8459C33.0994 19.0434 34.9189 19.6421 37.2988 19.6421H43.6935V20.1472C43.6935 21.0262 43.4353 21.6527 42.9198 22.0273C42.4042 22.4012 41.393 22.5886 39.8861 22.5886H31.2005V25.254H39.3507L39.3514 25.2533ZM37.5966 16.8358C36.05 16.8358 34.9593 16.5597 34.3246 16.0081C33.69 15.4566 33.373 14.479 33.373 13.0762V10.8034C33.373 9.40062 33.69 8.41824 34.3246 7.85698C34.9593 7.29572 36.05 7.01543 37.5966 7.01543H43.6942V16.8358H37.5966ZM55.2944 2.75012V0H52.0224V2.75012H55.2944ZM52.0224 21.0449H55.2944V4.20912H52.0224V21.0449ZM69.0067 14.3389C70.1967 14.5824 71.0196 14.8481 71.4756 15.1381C71.9323 15.4281 72.1603 15.8541 72.1603 16.4147C72.1603 16.9947 71.9419 17.4671 71.5058 17.8314C71.0696 18.1963 70.2268 18.3787 68.9773 18.3787H59.6077V21.0442H68.2036C70.7615 21.0442 72.606 20.5995 73.7356 19.7115C74.866 18.8228 75.4316 17.6496 75.4316 16.1899C75.4316 14.7871 74.9212 13.7443 73.8996 13.0617C72.8781 12.379 71.4454 11.86 69.6017 11.5041L65.2883 10.6619C64.2969 10.4746 63.613 10.2269 63.2364 9.91818C62.8599 9.60945 62.6709 9.19318 62.6709 8.66939C62.6709 8.18305 62.8488 7.76193 63.2063 7.40672C63.563 7.05151 64.2469 6.87321 65.2589 6.87321H74.8366V4.20773H65.8539C63.6725 4.20773 62.0369 4.63302 60.9463 5.48427C59.8556 6.33484 59.3099 7.4532 59.3099 8.83728C59.3099 10.1471 59.7813 11.1614 60.7227 11.8816C61.6648 12.6017 62.968 13.1303 64.6345 13.4668L69.0067 14.3368V14.3389ZM79.2985 25.2533H82.5705V21.0449H89.263C91.6231 21.0449 93.4374 20.4184 94.7068 19.1648C95.9762 17.9111 96.6109 16.1157 96.6109 13.7769V11.4764C96.6109 9.13768 95.9762 7.3422 94.7068 6.08924C93.4374 4.8356 91.6231 4.20912 89.263 4.20912H79.2985V25.2533ZM88.9652 7.01474C90.5126 7.01474 91.6025 7.31375 92.2372 7.91248C92.8719 8.51121 93.1889 9.5588 93.1889 11.0553V14.1696C93.1889 15.6848 92.8719 16.7414 92.2372 17.3402C91.6025 17.9389 90.5118 18.2379 88.9652 18.2379H82.5705V7.01404H88.9652V7.01474ZM7.64347 18.3787C6.09683 18.3787 5.00617 18.0561 4.37148 17.4109C3.73679 16.7657 3.41981 15.6848 3.41981 14.1703V11.056C3.41981 9.5595 3.73679 8.48831 4.37148 7.8431C5.00617 7.19789 6.09683 6.87529 7.64347 6.87529H14.0389V18.3794H7.64347V18.3787ZM17.3101 0H14.0389V4.20912H7.34635C4.96645 4.20912 3.1477 4.8356 1.88862 6.08924C0.62954 7.34289 0 9.13838 0 11.4764V13.7769C0 16.1157 0.62954 17.9111 1.88862 19.1648C3.1477 20.4184 4.96719 21.0449 7.34635 21.0449H17.3109V0.000693773L17.3101 0Z" fill="white"></path><path d="M121.209 6.87447H124.094V16.3306C124.094 17.902 124.565 19.0807 125.507 19.8661C126.448 20.6521 127.752 21.0448 129.418 21.0448H133.999V18.3793H129.388C128.675 18.3793 128.159 18.2433 127.842 17.9721C127.525 17.7008 127.366 17.2103 127.366 16.4992V6.87517H133.999V4.20969H127.366V0.926758H124.183V4.20969H121.209V6.87517V6.87447Z" fill="white"></path><path d="M109.42 18.2309C111.045 18.2309 112.515 17.61 113.579 16.6061C114.643 15.6022 115.302 14.2154 115.302 12.6828C115.302 11.1503 114.643 9.76344 113.579 8.75955C112.515 7.75566 111.045 7.13473 109.42 7.13473C107.796 7.13473 106.325 7.75566 105.261 8.75955C104.197 9.76344 103.539 11.1503 103.539 12.6828C103.539 14.2147 104.197 15.6022 105.261 16.6061C106.325 17.61 107.796 18.2309 109.42 18.2309ZM115.892 18.7887C114.236 20.3511 111.947 21.3175 109.42 21.3175C106.893 21.3175 104.604 20.3511 102.948 18.7887C101.291 17.2257 100.267 15.0673 100.267 12.6835C100.267 10.299 101.291 8.1407 102.948 6.57763C104.604 5.01525 106.893 4.04883 109.42 4.04883C111.947 4.04883 114.236 5.01525 115.892 6.57763C117.548 8.1407 118.574 10.299 118.574 12.6835C118.574 15.0673 117.549 17.2264 115.892 18.7887Z" fill="white"></path></svg>